<?xml version="1.0" standalone="no"?>
<!DOCTYPE svg PUBLIC "-//W3C//DTD SVG 20010904//EN"
 "http://www.w3.org/TR/2001/REC-SVG-20010904/DTD/svg10.dtd">
<svg version="1.0" xmlns="http://www.w3.org/2000/svg"
 width="1024.000000pt" height="1024.000000pt" viewBox="0 0 1024.000000 1024.000000"
 preserveAspectRatio="xMidYMid meet">

<g transform="translate(0.000000,1024.000000) scale(0.100000,-0.100000)"
fill="#000000" stroke="none">
<path d="M4210 7140 c0 -5 7 -7 15 -4 8 4 15 8 15 10 0 2 -7 4 -15 4 -8 0 -15
-4 -15 -10z"/>
<path d="M4177 7107 c-108 -130 -205 -336 -242 -512 -19 -88 -19 -85 5 -85 15
0 20 7 20 26 0 51 65 276 100 344 11 22 47 81 80 131 33 50 60 97 60 105 0 18
-2 18 -23 -9z"/>
<path d="M4625 6750 c3 -5 8 -10 11 -10 2 0 4 5 4 10 0 6 -5 10 -11 10 -5 0
-7 -4 -4 -10z"/>
<path d="M6205 6660 c-12 -19 15 -150 31 -150 17 0 18 28 3 103 -11 55 -21 68
-34 47z"/>
<path d="M3740 6392 c-153 -32 -138 -40 74 -41 l149 -1 -39 35 c-21 19 -43 34
-49 34 -5 -1 -66 -13 -135 -27z"/>
<path d="M5304 6273 c-61 -60 -194 -186 -297 -282 -103 -96 -184 -178 -180
-181 5 -4 64 -49 133 -101 69 -51 217 -165 328 -252 112 -87 209 -160 216
-163 7 -3 21 18 36 53 13 32 66 150 118 263 52 113 98 214 102 225 4 11 53
120 108 241 138 303 134 294 116 294 -7 0 -14 -8 -14 -18 0 -10 -12 -22 -30
-29 -35 -13 -38 -5 -10 25 l21 22 -163 1 c-90 0 -210 2 -268 5 l-105 4 -111
-107z m611 67 c-3 -5 -10 -10 -16 -10 -5 0 -9 5 -9 10 0 6 7 10 16 10 8 0 12
-4 9 -10z m31 -47 c-10 -10 -19 5 -10 18 6 11 8 11 12 0 2 -7 1 -15 -2 -18z
m-35 -25 c-10 -11 -11 -9 -5 6 6 15 4 17 -6 11 -9 -6 -11 -4 -5 4 5 9 10 10
18 2 8 -8 7 -14 -2 -23z"/>
<path d="M4715 6360 c-38 -4 -57 -7 -41 -8 21 -2 27 -6 22 -18 -5 -13 -1 -15
21 -10 20 5 24 4 13 -3 -8 -6 -11 -13 -7 -17 4 -4 2 -13 -4 -21 -9 -10 -8 -13
1 -13 7 0 10 -7 6 -17 -6 -14 -3 -14 15 3 l23 19 -24 -38 c-22 -38 -22 -39 -1
-26 11 8 21 17 21 21 0 5 5 8 11 8 6 0 51 29 101 65 63 45 85 65 70 65 -12 0
-22 -4 -22 -10 0 -5 -16 -10 -35 -10 -19 0 -35 4 -35 8 0 10 -37 11 -135 2z
m164 -24 c-2 -2 -15 -9 -29 -15 -24 -11 -24 -11 -6 3 16 13 49 24 35 12z"/>
<path d="M6041 6311 c-36 -71 -36 -71 -13 -71 40 -1 541 105 525 111 -10 4
-101 7 -203 8 -102 1 -206 4 -232 7 l-47 6 -30 -61z"/>
<path d="M4368 6323 c7 -3 16 -2 19 1 4 3 -2 6 -13 5 -11 0 -14 -3 -6 -6z"/>
<path d="M4398 6285 c-2 -3 -25 -5 -51 -6 -25 -1 -44 -5 -42 -9 7 -11 85 -4
98 9 6 6 9 11 6 11 -3 0 -8 -2 -11 -5z"/>
<path d="M4272 6238 l-32 -9 32 -28 c68 -58 209 -161 222 -161 16 0 51 38 43
47 -4 3 -16 -2 -27 -12 -18 -16 -20 -17 -14 -2 4 12 -1 19 -17 25 -15 6 -18
11 -11 16 7 4 19 0 28 -8 9 -9 21 -13 27 -9 8 5 6 9 -5 11 -10 2 -18 8 -18 13
0 5 -5 9 -11 9 -12 0 -44 30 -44 41 0 4 -3 10 -7 14 -10 10 -4 -17 10 -42 11
-19 10 -23 -2 -23 -8 0 -18 10 -21 21 -6 17 -9 19 -16 8 -5 -8 -3 -16 4 -21 6
-4 9 -10 5 -13 -3 -3 -12 0 -20 8 -7 8 -23 19 -35 26 -14 7 -20 17 -17 26 9
21 21 19 27 -6 3 -12 10 -18 16 -15 17 11 -11 46 -36 46 -17 0 -21 -4 -16 -17
6 -15 4 -16 -9 -5 -8 7 -15 24 -15 39 0 24 1 25 12 10 7 -9 16 -17 20 -17 4 0
2 6 -4 13 -6 8 -9 16 -6 18 8 8 -29 7 -63 -3z"/>
<path d="M4620 6210 c0 -5 5 -10 10 -10 6 0 10 5 10 10 0 6 -4 10 -10 10 -5 0
-10 -4 -10 -10z"/>
<path d="M4655 6210 c-3 -5 -1 -10 4 -10 6 0 11 5 11 10 0 6 -2 10 -4 10 -3 0
-8 -4 -11 -10z"/>
<path d="M6227 6213 c-3 -5 -12 -47 -21 -94 -42 -227 -134 -397 -311 -575 -67
-69 -133 -123 -202 -168 -57 -37 -103 -73 -103 -81 0 -20 2 -19 63 11 238 121
465 387 552 648 26 77 55 208 55 247 0 18 -24 27 -33 12z"/>
<path d="M3925 6163 c9 -65 12 -73 30 -73 11 0 15 10 15 38 0 57 -10 82 -32
82 -17 0 -19 -5 -13 -47z"/>
<path d="M4680 6190 c0 -5 4 -10 9 -10 6 0 13 5 16 10 3 6 -1 10 -9 10 -9 0
-16 -4 -16 -10z"/>
<path d="M4600 6181 c0 -6 4 -13 10 -16 6 -3 7 1 4 9 -7 18 -14 21 -14 7z"/>
<path d="M4645 6160 c-3 -5 -2 -10 4 -10 5 0 13 5 16 10 3 6 2 10 -4 10 -5 0
-13 -4 -16 -10z"/>
<path d="M4520 6145 c0 -8 4 -15 10 -15 5 0 7 7 4 15 -4 8 -8 15 -10 15 -2 0
-4 -7 -4 -15z"/>
<path d="M4570 6139 c0 -5 5 -7 10 -4 6 3 10 8 10 11 0 2 -4 4 -10 4 -5 0 -10
-5 -10 -11z"/>
<path d="M4600 6130 c-9 -16 -8 -18 5 -14 8 4 15 12 15 20 0 20 -7 17 -20 -6z"/>
<path d="M4545 6110 c-3 -5 -4 -10 -1 -10 2 0 11 -3 20 -6 11 -4 16 -1 16 10
0 18 -25 22 -35 6z"/>
<path d="M4327 6024 c-16 -9 -27 -17 -25 -20 6 -5 70 16 83 27 16 15 -28 9
-58 -7z"/>
<path d="M4037 5834 c-20 -20 119 -220 222 -322 76 -75 109 -98 121 -86 6 6
-34 54 -98 120 -72 75 -125 140 -162 202 -51 85 -67 101 -83 86z"/>
<path d="M4450 5723 c-56 -80 -54 -81 30 -14 14 12 31 21 39 21 9 0 11 7 7 23
-3 12 -6 28 -6 35 0 26 -18 9 -70 -65z"/>
<path d="M4769 5693 c-12 -37 -37 -105 -55 -150 -17 -46 -29 -83 -26 -83 11 0
225 184 228 195 3 9 -72 74 -112 98 -9 5 -19 -13 -35 -60z"/>
<path d="M4626 5603 c9 -38 14 -42 14 -10 0 14 -5 29 -10 32 -7 4 -8 -3 -4
-22z"/>
<path d="M4960 5590 c0 -22 95 -576 110 -643 4 -21 11 -41 14 -44 3 -4 6 138
6 315 l0 321 -52 36 c-60 40 -78 43 -78 15z"/>
<path d="M3691 5384 c0 -11 3 -14 6 -6 3 7 2 16 -1 19 -3 4 -6 -2 -5 -13z"/>
<path d="M4465 5369 c-8 -13 -12 -10 55 -47 110 -61 289 -121 408 -135 36 -4
42 -2 42 13 0 19 -9 22 -100 36 -74 11 -200 54 -292 100 -94 47 -103 50 -113
33z"/>
<path d="M3643 5330 c0 -25 2 -35 4 -22 2 12 2 32 0 45 -2 12 -4 2 -4 -23z"/>
<path d="M3651 5254 c0 -11 3 -14 6 -6 3 7 2 16 -1 19 -3 4 -6 -2 -5 -13z"/>
<path d="M5350 5245 c-30 -7 -72 -16 -92 -19 -29 -5 -38 -12 -38 -26 0 -25 12
-25 133 4 104 25 113 29 102 45 -8 14 -34 12 -105 -4z"/>
<path d="M4605 5148 c-193 -81 -447 -117 -590 -84 -54 13 -66 13 -125 -4 -36
-10 -58 -20 -50 -23 107 -40 276 -49 412 -23 137 27 384 118 422 156 13 13 13
13 -69 -22z"/>
<path d="M7847 4793 c-11 -11 -8 -964 3 -1004 15 -54 50 -100 95 -123 49 -26
180 -35 226 -16 29 13 30 14 27 79 l-3 66 -67 3 c-59 3 -70 6 -88 29 -19 25
-20 38 -20 480 0 294 -4 461 -10 474 -9 16 -22 19 -84 19 -40 0 -76 -3 -79 -7z"/>
<path d="M4276 4704 c-13 -12 -16 -38 -16 -120 l0 -104 -47 0 c-69 0 -75 -6
-71 -81 l3 -64 57 -3 56 -3 4 -262 c3 -224 6 -268 21 -302 40 -89 106 -128
217 -129 131 0 147 14 138 119 l-3 40 -74 0 c-67 0 -75 2 -97 28 -24 28 -24
29 -24 267 l0 239 92 3 92 3 10 33 c6 20 6 47 0 70 l-9 37 -92 3 -93 3 0 107
c0 71 -4 112 -12 120 -18 18 -133 15 -152 -4z"/>
<path d="M5603 4489 c-79 -7 -165 -33 -188 -56 -20 -20 -21 -131 -1 -139 7 -3
42 4 76 15 193 63 336 21 328 -98 l-3 -46 -100 -6 c-171 -11 -273 -46 -337
-117 -47 -52 -61 -98 -56 -187 3 -62 8 -80 34 -117 85 -122 297 -143 429 -42
26 19 48 34 49 32 2 -2 7 -19 12 -38 l10 -35 72 -3 c69 -3 72 -2 78 22 3 14 4
155 2 313 -5 324 -6 329 -81 410 -72 78 -168 106 -324 92z m224 -530 c-3 -38
-13 -79 -23 -94 -45 -68 -182 -105 -254 -68 -26 13 -38 29 -48 60 -12 38 -12
47 5 80 27 56 84 81 208 91 55 4 104 6 109 4 5 -3 6 -35 3 -73z"/>
<path d="M7232 4489 c-148 -26 -268 -152 -303 -318 -16 -78 -6 -223 19 -290
62 -160 187 -243 367 -244 101 -1 164 16 238 63 85 54 132 147 91 181 -9 8
-41 13 -75 14 -56 0 -60 -2 -91 -39 -39 -48 -81 -66 -153 -66 -115 0 -199 68
-221 179 l-6 31 280 0 c279 0 281 0 296 22 37 52 8 223 -53 320 -73 115 -231
175 -389 147z m165 -164 c21 -9 46 -23 57 -33 25 -23 56 -90 56 -124 l0 -28
-200 0 -200 0 0 25 c0 62 58 138 122 162 47 17 123 16 165 -2z"/>
<path d="M2284 4479 c-60 -14 -145 -69 -169 -109 -19 -33 -20 -54 -23 -372 -3
-318 -3 -336 15 -342 23 -7 136 -1 150 7 7 5 11 110 12 308 2 325 3 333 57
357 35 17 119 15 153 -3 16 -8 37 -31 47 -52 17 -34 20 -70 24 -328 l5 -290
80 0 80 0 5 300 c6 337 7 342 78 372 46 19 125 13 153 -13 52 -47 54 -60 59
-369 l5 -290 80 0 80 0 3 299 c2 251 0 308 -13 347 -23 67 -66 123 -121 155
-40 23 -62 29 -135 32 -77 4 -93 1 -142 -21 -31 -14 -64 -35 -74 -46 -23 -27
-26 -27 -65 9 -18 16 -56 37 -84 45 -57 16 -194 18 -260 4z"/>
<path d="M5060 4474 c-19 -8 -52 -31 -72 -51 -34 -33 -38 -35 -43 -17 -20 63
-27 69 -98 72 l-67 3 0 -416 0 -415 84 0 85 0 3 273 c3 263 4 273 26 312 46
80 120 105 240 82 l42 -9 0 81 c0 78 -1 82 -26 91 -38 15 -134 11 -174 -6z"/>
<path d="M3362 4468 c-16 -16 -17 -535 -1 -610 15 -71 41 -119 83 -156 47 -41
103 -57 201 -57 69 0 88 4 140 30 33 17 63 31 66 33 16 7 -13 -104 -35 -133
-52 -68 -167 -91 -301 -60 -41 10 -78 15 -82 11 -4 -4 -9 -36 -11 -71 l-4 -65
38 -17 c56 -24 257 -25 336 0 104 32 188 118 225 230 14 44 17 104 18 397 1
190 -1 374 -4 410 l-6 65 -60 3 c-32 2 -69 1 -82 -2 l-22 -6 -3 -283 -3 -284
-29 -37 c-75 -99 -230 -101 -283 -4 -16 29 -18 66 -21 318 -3 205 -7 287 -15
292 -19 12 -132 9 -145 -4z"/>
<path d="M6091 4468 c0 -7 66 -193 148 -413 l147 -400 56 -9 c70 -11 144 -1
153 22 59 151 286 771 288 786 2 20 -3 21 -84 24 -75 2 -87 0 -94 -15 -3 -10
-52 -148 -107 -308 -55 -159 -102 -292 -104 -294 -8 -9 -17 15 -114 299 -55
162 -105 300 -111 307 -16 18 -179 19 -178 1z"/>
<path d="M4640 3339 c-518 -27 -1073 -116 -1540 -245 -91 -26 -182 -51 -203
-56 -21 -6 -36 -13 -33 -15 2 -3 69 9 148 26 461 99 891 156 1488 198 341 24
1097 23 1445 -1 413 -28 837 -81 1179 -147 87 -16 161 -28 164 -24 3 3 3 5 -1
5 -3 0 -77 18 -164 40 -405 103 -951 187 -1443 220 -166 11 -824 11 -1040 -1z"/>
<path d="M4998 1533 c6 -2 18 -2 25 0 6 3 1 5 -13 5 -14 0 -19 -2 -12 -5z"/>
<path d="M5055 1530 c27 -12 43 -12 25 0 -8 5 -22 9 -30 9 -10 0 -8 -3 5 -9z"/>
<path d="M5128 1533 c12 -2 32 -2 45 0 12 2 2 4 -23 4 -25 0 -35 -2 -22 -4z"/>
<path d="M5238 1533 c18 -2 45 -2 60 0 15 2 0 4 -33 4 -33 0 -45 -2 -27 -4z"/>
</g>
</svg>
